{"accessors":[{"bufferView":0,"componentType":5126,"count":54,"type":"VEC3","max":[-6.3390093,2.182,6.1291494],"min":[-6.5857353,-7.7174563,5.9299426],"name":"Positions Accessor"},{"bufferView":1,"componentType":5125,"count":240,"type":"SCALAR","name":"Indices Accessor"}],"asset":{"generator":"glTF Asset Generator","version":"2.0"},"buffers":[{"uri":"data:application/octet-stream;base64,","byteLength":1608}],"bufferViews":[{"buffer":0,"byteLength":648,"name":"Positions"},{"buffer":0,"byteOffset":648,"byteLength":960,"name":"Indices"}],"materials":[{"pbrMetallicRoughness":{"baseColorFactor":[0.0,0.0,1.0,1.0],"metallicFactor":0.0},"doubleSided":true}],"meshes":[{"primitives":[{"attributes":{"POSITION":0},"indices":1,"material":0}]}],"nodes":[{"mesh":0,"extras":{"radialSegmentCount":5,"curveNames":["DEPT","DT_orig"],"sceneObjectId":"bdfb94b9-9a64-4668-aa09-2f9e04b0d624","projectId":"72143d8e-26c0-4e3b-97cd-36ed72b24ebd","type":"trajectory"}}],"scene":0,"scenes":[{"nodes":[0]}]}