{"accessors":[{"bufferView":0,"componentType":5126,"count":306,"type":"VEC3","max":[-28.30693,2.12,-5.394094],"min":[-28.487831,-7.7799997,-5.5843053],"name":"Positions Accessor"},{"bufferView":1,"componentType":5125,"count":1500,"type":"SCALAR","name":"Indices Accessor"}],"asset":{"generator":"glTF Asset Generator","version":"2.0"},"buffers":[{"uri":"data:application/octet-stream;base64,","byteLength":9672}],"bufferViews":[{"buffer":0,"byteLength":3672,"name":"Positions"},{"buffer":0,"byteOffset":3672,"byteLength":6000,"name":"Indices"}],"materials":[{"pbrMetallicRoughness":{"baseColorFactor":[0.0,0.0,1.0,1.0],"metallicFactor":0.0},"doubleSided":true}],"meshes":[{"primitives":[{"attributes":{"POSITION":0},"indices":1,"material":0}]}],"nodes":[{"mesh":0,"extras":{"radialSegmentCount":5,"curveNames":["DTS_original","PL_orig","DS1","GK","DS2","DT_orig","DEPT"],"sceneObjectId":"f336c737-0b31-47f5-89ff-a710a8782fd1","projectId":"72143d8e-26c0-4e3b-97cd-36ed72b24ebd","type":"trajectory"}}],"scene":0,"scenes":[{"nodes":[0]}]}